<svg xmlns="http://www.w3.org/2000/svg" xmlns:xlink="http://www.w3.org/1999/xlink" width="500" zoomAndPan="magnify" viewBox="0 0 375 374.999991" height="500" preserveAspectRatio="xMidYMid meet" version="1.0"><defs><g/><clipPath id="id1"><path d="M 150.25 116.410156 L 234.25 116.410156 L 234.25 240.910156 L 150.25 240.910156 Z M 150.25 116.410156 " clip-rule="nonzero"/></clipPath></defs><path fill="#ffbf0a" d="M 208.625 141.125 C 205.125 140.96875 202.488281 143.625 201.914062 146.867188 C 201.816406 147.164062 201.769531 147.46875 201.777344 147.78125 C 201.773438 148.089844 201.816406 148.390625 201.90625 148.683594 C 202.164062 150.246094 202.863281 151.578125 204.003906 152.671875 C 203.238281 155.769531 202.46875 158.867188 201.699219 161.96875 L 200.925781 161.96875 L 195.964844 146.53125 C 196.671875 145.980469 197.25 145.320312 197.707031 144.554688 C 198.164062 143.785156 198.464844 142.960938 198.613281 142.078125 C 198.714844 141.769531 198.761719 141.453125 198.75 141.125 C 198.757812 140.820312 198.714844 140.519531 198.621094 140.230469 C 198.0625 137.027344 195.53125 134.457031 192.097656 134.457031 C 191.660156 134.460938 191.230469 134.511719 190.804688 134.597656 C 190.378906 134.6875 189.964844 134.816406 189.5625 134.988281 C 189.164062 135.15625 188.78125 135.363281 188.421875 135.609375 C 188.058594 135.851562 187.726562 136.128906 187.417969 136.4375 C 187.109375 136.746094 186.835938 137.078125 186.589844 137.441406 C 186.347656 137.804688 186.140625 138.183594 185.972656 138.585938 C 185.804688 138.988281 185.675781 139.402344 185.585938 139.832031 C 185.496094 140.257812 185.449219 140.6875 185.441406 141.125 C 185.4375 142.195312 185.679688 143.203125 186.171875 144.152344 C 186.664062 145.101562 187.347656 145.882812 188.226562 146.492188 C 186.570312 151.644531 184.914062 156.796875 183.253906 161.945312 L 182.492188 161.945312 C 181.707031 158.847656 180.9375 155.75 180.1875 152.652344 C 181.3125 151.554688 182.007812 150.226562 182.273438 148.671875 C 182.371094 148.375 182.414062 148.070312 182.40625 147.757812 C 182.417969 147.449219 182.375 147.152344 182.277344 146.859375 C 181.722656 143.664062 179.191406 141.085938 175.753906 141.085938 C 175.320312 141.09375 174.886719 141.140625 174.460938 141.230469 C 174.035156 141.320312 173.621094 141.449219 173.222656 141.617188 C 172.820312 141.789062 172.441406 141.996094 172.078125 142.238281 C 171.71875 142.480469 171.382812 142.757812 171.074219 143.066406 C 170.769531 143.375 170.492188 143.710938 170.25 144.070312 C 170.007812 144.433594 169.800781 144.816406 169.632812 145.21875 C 169.460938 145.621094 169.332031 146.035156 169.242188 146.460938 C 169.15625 146.886719 169.105469 147.320312 169.101562 147.757812 C 169.105469 148.496094 169.230469 149.210938 169.472656 149.910156 C 169.71875 150.605469 170.066406 151.246094 170.519531 151.828125 C 170.972656 152.410156 171.511719 152.902344 172.125 153.304688 C 172.742188 153.710938 173.410156 154.003906 174.125 154.183594 C 175.09375 158.078125 176.0625 161.988281 177.027344 165.914062 C 177.121094 166.359375 177.3125 166.757812 177.597656 167.109375 C 177.886719 167.460938 178.238281 167.726562 178.652344 167.90625 C 179.09375 168.113281 179.558594 168.214844 180.046875 168.210938 L 185.539062 168.210938 C 185.878906 168.203125 186.210938 168.140625 186.53125 168.03125 C 186.851562 167.917969 187.148438 167.757812 187.417969 167.550781 C 187.6875 167.34375 187.921875 167.101562 188.117188 166.824219 C 188.308594 166.542969 188.457031 166.242188 188.554688 165.914062 C 189.734375 162.238281 190.914062 158.5625 192.097656 154.886719 L 195.628906 165.914062 C 195.730469 166.242188 195.875 166.542969 196.070312 166.824219 C 196.265625 167.101562 196.496094 167.34375 196.765625 167.550781 C 197.039062 167.757812 197.332031 167.917969 197.65625 168.03125 C 197.976562 168.140625 198.304688 168.203125 198.644531 168.210938 L 204.140625 168.210938 C 204.480469 168.207031 204.8125 168.148438 205.136719 168.039062 C 205.457031 167.929688 205.753906 167.769531 206.027344 167.5625 C 206.296875 167.355469 206.53125 167.109375 206.722656 166.828125 C 206.917969 166.546875 207.0625 166.242188 207.15625 165.914062 C 208.128906 162.023438 209.097656 158.113281 210.0625 154.191406 C 210.445312 154.089844 210.8125 153.957031 211.171875 153.792969 C 211.53125 153.625 211.871094 153.429688 212.191406 153.203125 C 212.515625 152.976562 212.816406 152.71875 213.09375 152.441406 C 213.371094 152.160156 213.621094 151.855469 213.84375 151.53125 C 214.070312 151.203125 214.261719 150.859375 214.425781 150.5 C 214.585938 150.140625 214.714844 149.769531 214.8125 149.386719 C 214.910156 149 214.96875 148.613281 214.996094 148.21875 C 215.023438 147.824219 215.015625 147.429688 214.972656 147.035156 C 214.929688 146.644531 214.851562 146.257812 214.738281 145.878906 C 214.628906 145.5 214.484375 145.132812 214.304688 144.78125 C 214.128906 144.425781 213.921875 144.089844 213.683594 143.777344 C 213.449219 143.460938 213.183594 143.167969 212.894531 142.898438 C 212.605469 142.628906 212.296875 142.386719 211.964844 142.171875 C 211.632812 141.960938 211.285156 141.777344 210.917969 141.625 C 210.554688 141.476562 210.179688 141.359375 209.796875 141.273438 C 209.410156 141.1875 209.019531 141.140625 208.625 141.125 Z M 208.625 141.125 " fill-opacity="1" fill-rule="nonzero"/><g clip-path="url(#id1)"><path fill="#141414" d="M 227.835938 136.738281 C 213.671875 112.507812 178.796875 109.375 160.601562 130.746094 C 147.011719 146.738281 150.703125 170.035156 150.703125 189.507812 C 150.703125 200.296875 150.703125 210.59375 156.351562 220.292969 C 157.265625 221.84375 158.277344 223.328125 159.386719 224.75 C 160.492188 226.167969 161.6875 227.511719 162.96875 228.777344 C 164.246094 230.042969 165.601562 231.21875 167.035156 232.308594 C 168.464844 233.402344 169.960938 234.394531 171.523438 235.289062 C 173.082031 236.1875 174.691406 236.980469 176.351562 237.667969 C 178.015625 238.355469 179.714844 238.933594 181.449219 239.402344 C 183.1875 239.871094 184.945312 240.226562 186.726562 240.46875 C 188.507812 240.710938 190.296875 240.835938 192.097656 240.84375 C 218.253906 240.058594 233.515625 219.382812 233.515625 194.589844 C 233.484375 176.597656 237.308594 152.957031 227.835938 136.738281 Z M 226.253906 207.628906 C 222.527344 223.609375 208.082031 234.089844 192.097656 234.546875 C 190.476562 234.535156 188.867188 234.417969 187.265625 234.1875 C 185.667969 233.957031 184.089844 233.617188 182.53125 233.171875 C 180.976562 232.726562 179.460938 232.175781 177.980469 231.523438 C 176.5 230.867188 175.070312 230.117188 173.691406 229.265625 C 172.316406 228.414062 171 227.476562 169.753906 226.445312 C 168.503906 225.414062 167.328125 224.304688 166.230469 223.113281 C 165.132812 221.921875 164.121094 220.664062 163.195312 219.332031 C 162.269531 218.003906 161.4375 216.617188 160.699219 215.175781 C 157.089844 208.039062 156.953125 200.550781 156.953125 192.804688 C 156.953125 179.03125 154.648438 162.898438 157.929688 149.378906 C 164.835938 120.960938 202.734375 113.230469 220.210938 136.617188 C 230.183594 149.980469 227.265625 169.261719 227.265625 185 C 227.265625 192.375 227.949219 200.382812 226.253906 207.628906 Z M 226.253906 207.628906 " fill-opacity="1" fill-rule="nonzero"/></g><g fill="#141414" fill-opacity="1"><g transform="translate(173.890612, 221.748737)"><g><path d="M 11.484375 0 L 25.640625 0 C 26.433594 0 27.0625 -0.683594 27.0625 -1.476562 L 27.0625 -28.710938 C 27.0625 -29.503906 27.742188 -30.128906 28.539062 -30.128906 L 34.222656 -30.128906 C 35.019531 -30.128906 35.644531 -30.753906 35.644531 -31.550781 L 35.644531 -44.058594 C 35.644531 -44.796875 35.019531 -45.480469 34.222656 -45.480469 L 2.84375 -45.535156 C 2.046875 -45.535156 1.421875 -44.910156 1.421875 -44.117188 L 1.421875 -31.550781 C 1.421875 -30.753906 2.046875 -30.128906 2.84375 -30.128906 L 8.527344 -30.128906 C 9.324219 -30.128906 10.003906 -29.503906 10.003906 -28.710938 L 10.003906 -1.421875 C 10.003906 -0.625 10.6875 0 11.484375 0 Z M 11.484375 0 "/></g></g></g><g fill="#141414" fill-opacity="1"><g transform="translate(158.864008, 261.43756)"><g><path d="M 7.78125 -10.734375 L 7.78125 -9.59375 L 4.859375 -9.59375 L 4.859375 0 L 3.46875 0 L 3.46875 -9.59375 L 0.515625 -9.59375 L 0.515625 -10.734375 Z M 7.78125 -10.734375 "/></g></g></g><g fill="#141414" fill-opacity="1"><g transform="translate(173.345834, 261.43756)"><g><path d="M 6.828125 0 L 4.28125 -4.390625 L 2.578125 -4.390625 L 2.578125 0 L 1.1875 0 L 1.1875 -10.734375 L 4.640625 -10.734375 C 5.453125 -10.734375 6.140625 -10.59375 6.703125 -10.3125 C 7.265625 -10.03125 7.679688 -9.65625 7.953125 -9.1875 C 8.234375 -8.71875 8.375 -8.179688 8.375 -7.578125 C 8.375 -6.835938 8.160156 -6.179688 7.734375 -5.609375 C 7.304688 -5.046875 6.664062 -4.675781 5.8125 -4.5 L 8.515625 0 Z M 2.578125 -5.515625 L 4.640625 -5.515625 C 5.398438 -5.515625 5.96875 -5.703125 6.34375 -6.078125 C 6.726562 -6.453125 6.921875 -6.953125 6.921875 -7.578125 C 6.921875 -8.210938 6.734375 -8.703125 6.359375 -9.046875 C 5.984375 -9.398438 5.410156 -9.578125 4.640625 -9.578125 L 2.578125 -9.578125 Z M 2.578125 -5.515625 "/></g></g></g><g fill="#141414" fill-opacity="1"><g transform="translate(188.858579, 261.43756)"><g><path d="M 6.046875 0.109375 C 5.054688 0.109375 4.148438 -0.125 3.328125 -0.59375 C 2.503906 -1.0625 1.851562 -1.710938 1.375 -2.546875 C 0.894531 -3.378906 0.65625 -4.320312 0.65625 -5.375 C 0.65625 -6.414062 0.894531 -7.351562 1.375 -8.1875 C 1.851562 -9.03125 2.503906 -9.679688 3.328125 -10.140625 C 4.148438 -10.609375 5.054688 -10.84375 6.046875 -10.84375 C 7.054688 -10.84375 7.96875 -10.609375 8.78125 -10.140625 C 9.601562 -9.679688 10.25 -9.035156 10.71875 -8.203125 C 11.195312 -7.367188 11.4375 -6.425781 11.4375 -5.375 C 11.4375 -4.3125 11.195312 -3.363281 10.71875 -2.53125 C 10.25 -1.707031 9.601562 -1.0625 8.78125 -0.59375 C 7.96875 -0.125 7.054688 0.109375 6.046875 0.109375 Z M 6.046875 -1.109375 C 6.796875 -1.109375 7.46875 -1.28125 8.0625 -1.625 C 8.664062 -1.976562 9.140625 -2.476562 9.484375 -3.125 C 9.828125 -3.769531 10 -4.519531 10 -5.375 C 10 -6.238281 9.828125 -6.988281 9.484375 -7.625 C 9.140625 -8.269531 8.671875 -8.765625 8.078125 -9.109375 C 7.484375 -9.460938 6.804688 -9.640625 6.046875 -9.640625 C 5.285156 -9.640625 4.609375 -9.460938 4.015625 -9.109375 C 3.421875 -8.765625 2.953125 -8.269531 2.609375 -7.625 C 2.265625 -6.988281 2.09375 -6.238281 2.09375 -5.375 C 2.09375 -4.519531 2.265625 -3.769531 2.609375 -3.125 C 2.953125 -2.476562 3.421875 -1.976562 4.015625 -1.625 C 4.617188 -1.28125 5.296875 -1.109375 6.046875 -1.109375 Z M 6.046875 -1.109375 "/></g></g></g><g fill="#141414" fill-opacity="1"><g transform="translate(207.110156, 261.43756)"><g><path d="M 8.359375 -7.59375 C 8.359375 -6.695312 8.050781 -5.953125 7.4375 -5.359375 C 6.832031 -4.773438 5.898438 -4.484375 4.640625 -4.484375 L 2.578125 -4.484375 L 2.578125 0 L 1.1875 0 L 1.1875 -10.734375 L 4.640625 -10.734375 C 5.859375 -10.734375 6.78125 -10.4375 7.40625 -9.84375 C 8.039062 -9.257812 8.359375 -8.507812 8.359375 -7.59375 Z M 4.640625 -5.640625 C 5.421875 -5.640625 5.992188 -5.804688 6.359375 -6.140625 C 6.734375 -6.484375 6.921875 -6.96875 6.921875 -7.59375 C 6.921875 -8.914062 6.160156 -9.578125 4.640625 -9.578125 L 2.578125 -9.578125 L 2.578125 -5.640625 Z M 4.640625 -5.640625 "/></g></g></g><g fill="#141414" fill-opacity="1"><g transform="translate(222.176686, 261.43756)"><g><path d="M 2.578125 -10.734375 L 2.578125 0 L 1.1875 0 L 1.1875 -10.734375 Z M 2.578125 -10.734375 "/></g></g></g></svg>