<svg xmlns="http://www.w3.org/2000/svg" xmlns:xlink="http://www.w3.org/1999/xlink" width="500" zoomAndPan="magnify" viewBox="0 0 375 374.999991" height="500" preserveAspectRatio="xMidYMid meet" version="1.0"><defs><g/><clipPath id="id1"><path d="M 145.332031 113.128906 L 229.332031 113.128906 L 229.332031 237.628906 L 145.332031 237.628906 Z M 145.332031 113.128906 " clip-rule="nonzero"/></clipPath></defs><path fill="#ffbf0a" d="M 203.707031 137.847656 C 200.207031 137.691406 197.570312 140.34375 196.996094 143.589844 C 196.898438 143.886719 196.851562 144.191406 196.859375 144.503906 C 196.855469 144.8125 196.898438 145.113281 196.988281 145.40625 C 197.246094 146.96875 197.945312 148.296875 199.085938 149.394531 C 198.320312 152.492188 197.550781 155.589844 196.78125 158.691406 L 196.003906 158.691406 L 191.046875 143.25 C 191.753906 142.703125 192.332031 142.042969 192.789062 141.273438 C 193.246094 140.507812 193.546875 139.683594 193.695312 138.800781 C 193.796875 138.492188 193.84375 138.171875 193.832031 137.847656 C 193.839844 137.539062 193.796875 137.242188 193.703125 136.953125 C 193.144531 133.746094 190.613281 131.179688 187.179688 131.179688 C 186.742188 131.183594 186.3125 131.230469 185.886719 131.320312 C 185.460938 131.410156 185.046875 131.539062 184.644531 131.710938 C 184.246094 131.878906 183.863281 132.085938 183.503906 132.328125 C 183.140625 132.574219 182.808594 132.847656 182.5 133.15625 C 182.191406 133.464844 181.917969 133.800781 181.671875 134.164062 C 181.429688 134.523438 181.222656 134.90625 181.054688 135.308594 C 180.886719 135.710938 180.757812 136.125 180.667969 136.550781 C 180.578125 136.980469 180.53125 137.410156 180.523438 137.847656 C 180.519531 138.917969 180.761719 139.925781 181.253906 140.875 C 181.746094 141.824219 182.429688 142.601562 183.308594 143.210938 C 181.652344 148.367188 179.992188 153.519531 178.335938 158.664062 L 177.574219 158.664062 C 176.789062 155.570312 176.019531 152.472656 175.269531 149.375 C 176.394531 148.273438 177.089844 146.945312 177.355469 145.390625 C 177.453125 145.09375 177.496094 144.789062 177.488281 144.476562 C 177.5 144.171875 177.457031 143.871094 177.359375 143.582031 C 176.804688 140.382812 174.273438 137.808594 170.835938 137.808594 C 170.402344 137.8125 169.96875 137.863281 169.542969 137.949219 C 169.117188 138.039062 168.703125 138.167969 168.304688 138.339844 C 167.902344 138.507812 167.523438 138.714844 167.160156 138.960938 C 166.800781 139.203125 166.464844 139.480469 166.15625 139.789062 C 165.851562 140.097656 165.574219 140.429688 165.332031 140.792969 C 165.089844 141.15625 164.882812 141.535156 164.714844 141.9375 C 164.542969 142.339844 164.414062 142.753906 164.324219 143.183594 C 164.234375 143.609375 164.1875 144.039062 164.183594 144.476562 C 164.1875 145.214844 164.3125 145.933594 164.554688 146.632812 C 164.800781 147.328125 165.148438 147.96875 165.601562 148.550781 C 166.054688 149.128906 166.589844 149.625 167.207031 150.027344 C 167.824219 150.429688 168.492188 150.722656 169.207031 150.90625 C 170.175781 154.800781 171.144531 158.707031 172.109375 162.636719 C 172.203125 163.082031 172.394531 163.476562 172.679688 163.828125 C 172.96875 164.179688 173.320312 164.449219 173.734375 164.628906 C 174.175781 164.835938 174.640625 164.9375 175.128906 164.933594 L 180.621094 164.933594 C 180.960938 164.925781 181.292969 164.863281 181.613281 164.75 C 181.933594 164.636719 182.230469 164.480469 182.5 164.273438 C 182.769531 164.066406 183.003906 163.824219 183.199219 163.542969 C 183.390625 163.265625 183.539062 162.960938 183.636719 162.636719 C 184.816406 158.960938 185.996094 155.285156 187.179688 151.605469 L 190.710938 162.636719 C 190.8125 162.960938 190.957031 163.265625 191.152344 163.542969 C 191.347656 163.824219 191.578125 164.066406 191.847656 164.273438 C 192.121094 164.480469 192.414062 164.636719 192.738281 164.75 C 193.058594 164.863281 193.386719 164.925781 193.726562 164.933594 L 199.222656 164.933594 C 199.5625 164.929688 199.894531 164.871094 200.21875 164.761719 C 200.539062 164.648438 200.835938 164.492188 201.109375 164.285156 C 201.378906 164.078125 201.613281 163.832031 201.804688 163.550781 C 202 163.269531 202.144531 162.964844 202.238281 162.636719 C 203.210938 158.742188 204.179688 154.835938 205.144531 150.914062 C 205.527344 150.8125 205.894531 150.679688 206.253906 150.511719 C 206.613281 150.347656 206.953125 150.152344 207.273438 149.921875 C 207.597656 149.695312 207.898438 149.441406 208.175781 149.160156 C 208.453125 148.878906 208.703125 148.578125 208.925781 148.25 C 209.152344 147.925781 209.34375 147.582031 209.507812 147.222656 C 209.667969 146.863281 209.796875 146.488281 209.894531 146.105469 C 209.992188 145.722656 210.050781 145.332031 210.078125 144.9375 C 210.105469 144.542969 210.097656 144.152344 210.054688 143.757812 C 210.011719 143.363281 209.933594 142.980469 209.820312 142.601562 C 209.710938 142.21875 209.566406 141.855469 209.386719 141.5 C 209.210938 141.148438 209.003906 140.8125 208.765625 140.496094 C 208.53125 140.179688 208.265625 139.886719 207.976562 139.617188 C 207.6875 139.351562 207.378906 139.109375 207.046875 138.894531 C 206.714844 138.679688 206.367188 138.5 206 138.347656 C 205.636719 138.195312 205.261719 138.078125 204.878906 137.996094 C 204.492188 137.910156 204.101562 137.863281 203.707031 137.847656 Z M 203.707031 137.847656 " fill-opacity="1" fill-rule="nonzero"/><g clip-path="url(#id1)"><path fill="#ffffff" d="M 222.917969 133.460938 C 208.753906 109.230469 173.878906 106.097656 155.683594 127.46875 C 142.09375 143.457031 145.78125 166.753906 145.78125 186.230469 C 145.78125 197.019531 145.78125 207.316406 151.433594 217.015625 C 152.347656 218.566406 153.359375 220.050781 154.46875 221.46875 C 155.574219 222.890625 156.769531 224.234375 158.050781 225.5 C 159.328125 226.765625 160.683594 227.941406 162.117188 229.03125 C 163.546875 230.121094 165.042969 231.117188 166.605469 232.011719 C 168.164062 232.910156 169.773438 233.703125 171.433594 234.390625 C 173.097656 235.078125 174.796875 235.65625 176.53125 236.125 C 178.269531 236.59375 180.027344 236.949219 181.808594 237.191406 C 183.589844 237.429688 185.378906 237.558594 187.179688 237.566406 C 213.335938 236.78125 228.597656 216.105469 228.597656 191.308594 C 228.566406 173.320312 232.390625 149.679688 222.917969 133.460938 Z M 221.335938 204.351562 C 217.609375 220.328125 203.164062 230.8125 187.179688 231.265625 C 185.558594 231.257812 183.949219 231.136719 182.347656 230.90625 C 180.75 230.679688 179.167969 230.339844 177.613281 229.894531 C 176.058594 229.449219 174.542969 228.898438 173.0625 228.242188 C 171.582031 227.589844 170.152344 226.835938 168.773438 225.988281 C 167.398438 225.136719 166.082031 224.195312 164.835938 223.167969 C 163.585938 222.136719 162.410156 221.027344 161.3125 219.835938 C 160.214844 218.644531 159.203125 217.382812 158.277344 216.054688 C 157.351562 214.726562 156.519531 213.339844 155.78125 211.894531 C 152.171875 204.757812 152.035156 197.273438 152.035156 189.527344 C 152.035156 175.753906 149.730469 159.617188 153.011719 146.097656 C 159.917969 117.683594 197.816406 109.949219 215.292969 133.339844 C 225.265625 146.703125 222.347656 165.984375 222.347656 181.722656 C 222.347656 189.097656 223.03125 197.105469 221.335938 204.351562 Z M 221.335938 204.351562 " fill-opacity="1" fill-rule="nonzero"/></g><g fill="#ffffff" fill-opacity="1"><g transform="translate(168.972576, 218.470049)"><g><path d="M 11.484375 0 L 25.640625 0 C 26.433594 0 27.0625 -0.683594 27.0625 -1.476562 L 27.0625 -28.710938 C 27.0625 -29.503906 27.742188 -30.128906 28.539062 -30.128906 L 34.222656 -30.128906 C 35.019531 -30.128906 35.644531 -30.753906 35.644531 -31.550781 L 35.644531 -44.058594 C 35.644531 -44.796875 35.019531 -45.480469 34.222656 -45.480469 L 2.84375 -45.535156 C 2.046875 -45.535156 1.421875 -44.910156 1.421875 -44.117188 L 1.421875 -31.550781 C 1.421875 -30.753906 2.046875 -30.128906 2.84375 -30.128906 L 8.527344 -30.128906 C 9.324219 -30.128906 10.003906 -29.503906 10.003906 -28.710938 L 10.003906 -1.421875 C 10.003906 -0.625 10.6875 0 11.484375 0 Z M 11.484375 0 "/></g></g></g><g fill="#ffffff" fill-opacity="1"><g transform="translate(153.945976, 258.158918)"><g><path d="M 7.78125 -10.734375 L 7.78125 -9.59375 L 4.859375 -9.59375 L 4.859375 0 L 3.46875 0 L 3.46875 -9.59375 L 0.515625 -9.59375 L 0.515625 -10.734375 Z M 7.78125 -10.734375 "/></g></g></g><g fill="#ffffff" fill-opacity="1"><g transform="translate(168.427803, 258.158918)"><g><path d="M 6.828125 0 L 4.28125 -4.390625 L 2.578125 -4.390625 L 2.578125 0 L 1.1875 0 L 1.1875 -10.734375 L 4.640625 -10.734375 C 5.453125 -10.734375 6.140625 -10.59375 6.703125 -10.3125 C 7.265625 -10.03125 7.679688 -9.65625 7.953125 -9.1875 C 8.234375 -8.71875 8.375 -8.179688 8.375 -7.578125 C 8.375 -6.835938 8.160156 -6.179688 7.734375 -5.609375 C 7.304688 -5.046875 6.664062 -4.675781 5.8125 -4.5 L 8.515625 0 Z M 2.578125 -5.515625 L 4.640625 -5.515625 C 5.398438 -5.515625 5.96875 -5.703125 6.34375 -6.078125 C 6.726562 -6.453125 6.921875 -6.953125 6.921875 -7.578125 C 6.921875 -8.210938 6.734375 -8.703125 6.359375 -9.046875 C 5.984375 -9.398438 5.410156 -9.578125 4.640625 -9.578125 L 2.578125 -9.578125 Z M 2.578125 -5.515625 "/></g></g></g><g fill="#ffffff" fill-opacity="1"><g transform="translate(183.940547, 258.158918)"><g><path d="M 6.046875 0.109375 C 5.054688 0.109375 4.148438 -0.125 3.328125 -0.59375 C 2.503906 -1.0625 1.851562 -1.710938 1.375 -2.546875 C 0.894531 -3.378906 0.65625 -4.320312 0.65625 -5.375 C 0.65625 -6.414062 0.894531 -7.351562 1.375 -8.1875 C 1.851562 -9.03125 2.503906 -9.679688 3.328125 -10.140625 C 4.148438 -10.609375 5.054688 -10.84375 6.046875 -10.84375 C 7.054688 -10.84375 7.96875 -10.609375 8.78125 -10.140625 C 9.601562 -9.679688 10.25 -9.035156 10.71875 -8.203125 C 11.195312 -7.367188 11.4375 -6.425781 11.4375 -5.375 C 11.4375 -4.3125 11.195312 -3.363281 10.71875 -2.53125 C 10.25 -1.707031 9.601562 -1.0625 8.78125 -0.59375 C 7.96875 -0.125 7.054688 0.109375 6.046875 0.109375 Z M 6.046875 -1.109375 C 6.796875 -1.109375 7.46875 -1.28125 8.0625 -1.625 C 8.664062 -1.976562 9.140625 -2.476562 9.484375 -3.125 C 9.828125 -3.769531 10 -4.519531 10 -5.375 C 10 -6.238281 9.828125 -6.988281 9.484375 -7.625 C 9.140625 -8.269531 8.671875 -8.765625 8.078125 -9.109375 C 7.484375 -9.460938 6.804688 -9.640625 6.046875 -9.640625 C 5.285156 -9.640625 4.609375 -9.460938 4.015625 -9.109375 C 3.421875 -8.765625 2.953125 -8.269531 2.609375 -7.625 C 2.265625 -6.988281 2.09375 -6.238281 2.09375 -5.375 C 2.09375 -4.519531 2.265625 -3.769531 2.609375 -3.125 C 2.953125 -2.476562 3.421875 -1.976562 4.015625 -1.625 C 4.617188 -1.28125 5.296875 -1.109375 6.046875 -1.109375 Z M 6.046875 -1.109375 "/></g></g></g><g fill="#ffffff" fill-opacity="1"><g transform="translate(202.192125, 258.158918)"><g><path d="M 8.359375 -7.59375 C 8.359375 -6.695312 8.050781 -5.953125 7.4375 -5.359375 C 6.832031 -4.773438 5.898438 -4.484375 4.640625 -4.484375 L 2.578125 -4.484375 L 2.578125 0 L 1.1875 0 L 1.1875 -10.734375 L 4.640625 -10.734375 C 5.859375 -10.734375 6.78125 -10.4375 7.40625 -9.84375 C 8.039062 -9.257812 8.359375 -8.507812 8.359375 -7.59375 Z M 4.640625 -5.640625 C 5.421875 -5.640625 5.992188 -5.804688 6.359375 -6.140625 C 6.734375 -6.484375 6.921875 -6.96875 6.921875 -7.59375 C 6.921875 -8.914062 6.160156 -9.578125 4.640625 -9.578125 L 2.578125 -9.578125 L 2.578125 -5.640625 Z M 4.640625 -5.640625 "/></g></g></g><g fill="#ffffff" fill-opacity="1"><g transform="translate(217.258654, 258.158918)"><g><path d="M 2.578125 -10.734375 L 2.578125 0 L 1.1875 0 L 1.1875 -10.734375 Z M 2.578125 -10.734375 "/></g></g></g></svg>